<svg width="16" height="16" viewBox="0 0 16 16" version="1.1" xmlns="http://www.w3.org/2000/svg" xmlns:xlink="http://www.w3.org/1999/xlink" xmlns:figma="http://www.figma.com/figma/ns">
<title>Vector</title>
<desc>Created using Figma</desc>
<g id="Canvas" transform="translate(-661 366)" figma:type="canvas">
<g id="Vector" figma:type="vector">
<use xlink:href="#path0_fill" transform="translate(661 -366)" fill="#4F4F4F"/>
</g>
</g>
<defs>
<path id="path0_fill" d="M 12.6034 11.7691C 13.6462 10.5177 14.3017 8.90875 14.3017 7.15084C 14.3017 3.21788 11.0838 -2.84149e-08 7.15084 -2.84149e-08C 3.21788 -2.84149e-08 1.42074e-08 3.21788 1.42074e-08 7.15084C 1.42074e-08 11.0838 3.21788 14.3017 7.15084 14.3017C 8.90875 14.3017 10.5177 13.676 11.7691 12.6034L 14.987 15.8212C 15.1061 15.9404 15.2551 16 15.4041 16C 15.5531 16 15.702 15.9404 15.8212 15.8212C 16.0596 15.5829 16.0596 15.2253 15.8212 14.987L 12.6034 11.7691ZM 7.15084 13.1397C 3.87337 13.1397 1.19181 10.4581 1.19181 7.18063C 1.19181 3.90317 3.87337 1.2216 7.15084 1.2216C 10.4283 1.2216 13.1099 3.90317 13.1099 7.18063C 13.1099 10.4581 10.4283 13.1397 7.15084 13.1397Z"/>
</defs>
</svg>
