<svg width="16" height="16" viewBox="0 0 16 16" version="1.1" xmlns="http://www.w3.org/2000/svg" xmlns:xlink="http://www.w3.org/1999/xlink" xmlns:figma="http://www.figma.com/figma/ns">
<title>Media_Viewer_Icon_-_Tag</title>
<desc>Created using Figma</desc>
<g id="Canvas" transform="translate(-1145 -1645)" figma:type="canvas">
<g id="Media_Viewer_Icon_-_Tag" figma:type="frame">
<g id="path12" figma:type="vector">
<use xlink:href="#path0_fill" transform="translate(1145 1645)" fill="#828282"/>
</g>
</g>
</g>
<defs>
<path id="path0_fill" d="M 14.586 9.6472L 15.4738 8.75945C 15.4983 8.73933 15.5196 8.71484 15.5426 8.69205L 15.5555 8.67848C 15.6013 8.63242 15.6413 8.57957 15.6718 8.52357C 15.8871 8.21836 16 7.86491 16 7.49134L 16 1.81114C 16 1.32847 15.8114 0.871993 15.4689 0.529208C 15.1274 0.189574 14.6725 1.75706e-08 14.1882 1.75706e-08L 8.51024 1.75706e-08C 8.10765 1.75706e-08 7.7276 0.130181 7.40693 0.378664C 7.3919 0.388361 7.37784 0.400967 7.36354 0.412118C 7.27629 0.485087 7.19654 0.561693 7.12698 0.645086L 6.42772 1.34375C 6.36688 1.39369 6.3121 1.44047 6.26169 1.49017L 3.45324 4.30227L 0.964972 6.79049L 0.359751 7.39606C -0.119917 7.87485 -0.119917 8.65254 0.359751 9.12963L 0.964972 9.7369L 6.26193 15.0348L 6.86812 15.6404C 7.34779 16.1199 8.12413 16.1199 8.60186 15.6404L 9.20902 15.0348L 11.6963 12.5449L 14.5057 9.7369C 14.5334 9.71023 14.5578 9.68259 14.586 9.6472ZM 12.9613 3.03901C 13.8688 3.94664 13.8673 5.41087 12.9613 6.31535C 12.0575 7.22201 10.5908 7.22201 9.68481 6.31535C 8.78146 5.41135 8.77976 3.94324 9.68481 3.03901C 10.5889 2.13429 12.0592 2.13429 12.9613 3.03901Z"/>
</defs>
</svg>
